<svg width="26" height="26" viewBox="0 0 26 26" fill="none" xmlns="http://www.w3.org/2000/svg">
<path fill-rule="evenodd" clip-rule="evenodd" d="M13.0233 0.0974121C5.85783 0.0974121 0.0473633 6.00586 0.0473633 13.2949C0.0473633 19.126 3.76536 24.073 8.9211 25.8181C9.56959 25.9403 9.80768 25.5318 9.80768 25.1832C9.80768 24.8685 9.79564 23.8289 9.79006 22.7261C6.18014 23.5245 5.4184 21.1689 5.4184 21.1689C4.82814 19.6435 3.97766 19.2379 3.97766 19.2379C2.80035 18.4187 4.0664 18.4356 4.0664 18.4356C5.36941 18.5285 6.05551 19.7956 6.05551 19.7956C7.21283 21.8132 9.09107 21.2299 9.83153 20.8927C9.94799 20.0399 10.2843 19.4573 10.6554 19.1279C7.77323 18.7942 4.74348 17.6626 4.74348 12.6056C4.74348 11.1647 5.25037 9.98737 6.08044 9.06313C5.94571 8.7305 5.50156 7.3884 6.20614 5.57051C6.20614 5.57051 7.29578 5.21581 9.77545 6.92333C10.8105 6.63091 11.9206 6.48426 13.0233 6.47924C14.126 6.48426 15.237 6.63091 16.2739 6.92333C18.7506 5.21581 19.8387 5.57051 19.8387 5.57051C20.545 7.3884 20.1007 8.7305 19.9659 9.06313C20.7979 9.98737 21.3014 11.1647 21.3014 12.6056C21.3014 17.6746 18.2658 18.7907 15.3764 19.1174C15.8418 19.527 16.2565 20.3302 16.2565 21.5615C16.2565 23.3271 16.2415 24.7483 16.2415 25.1832C16.2415 25.5344 16.4751 25.946 17.1328 25.8164C22.2857 24.0693 25.999 19.124 25.999 13.2949C25.999 6.00586 20.1894 0.0974121 13.0233 0.0974121Z" fill="white"/>
<path fill-rule="evenodd" clip-rule="evenodd" d="M4.96201 19.0462C4.93343 19.112 4.83201 19.1314 4.73961 19.0864C4.6455 19.0433 4.59264 18.954 4.62315 18.8882C4.65108 18.8206 4.75272 18.8021 4.84662 18.8469C4.94095 18.8901 4.99467 18.9804 4.96201 19.0462Z" fill="white"/>
<path fill-rule="evenodd" clip-rule="evenodd" d="M5.48759 19.6424C5.42571 19.7007 5.30474 19.6736 5.22265 19.5814C5.13778 19.4894 5.12188 19.3664 5.18462 19.3071C5.24844 19.2488 5.36576 19.2761 5.45085 19.3681C5.53573 19.4612 5.55227 19.5834 5.48759 19.6424Z" fill="white"/>
<path fill-rule="evenodd" clip-rule="evenodd" d="M5.99921 20.4025C5.91971 20.4587 5.78971 20.406 5.70935 20.2886C5.62984 20.1713 5.62984 20.0305 5.71107 19.9741C5.79164 19.9178 5.91971 19.9685 6.00115 20.0849C6.08044 20.2041 6.08044 20.345 5.99921 20.4025Z" fill="white"/>
<path fill-rule="evenodd" clip-rule="evenodd" d="M6.70014 21.1368C6.62902 21.2166 6.47753 21.1952 6.36665 21.0863C6.2532 20.9799 6.22161 20.8289 6.29295 20.7491C6.36493 20.6691 6.51728 20.6916 6.62902 20.7996C6.74161 20.9058 6.77599 21.0579 6.70014 21.1368Z" fill="white"/>
<path fill-rule="evenodd" clip-rule="evenodd" d="M7.66708 21.5632C7.63571 21.6666 7.48981 21.7136 7.34283 21.6696C7.19607 21.6244 7.10003 21.5033 7.12968 21.3989C7.16019 21.2948 7.30674 21.2459 7.45478 21.2929C7.60133 21.3379 7.6976 21.4581 7.66708 21.5632Z" fill="white"/>
<path fill-rule="evenodd" clip-rule="evenodd" d="M8.729 21.6423C8.73265 21.7512 8.60802 21.8414 8.45374 21.8432C8.2986 21.8469 8.17312 21.7588 8.1714 21.6517C8.1714 21.5418 8.29323 21.4524 8.44837 21.4498C8.60265 21.4467 8.729 21.5341 8.729 21.6423Z" fill="white"/>
<path fill-rule="evenodd" clip-rule="evenodd" d="M9.71722 21.4712C9.73569 21.5774 9.62847 21.6865 9.47526 21.7153C9.32464 21.7435 9.18518 21.6779 9.16606 21.5726C9.14736 21.4638 9.25652 21.3547 9.40693 21.3265C9.56036 21.2994 9.69766 21.3632 9.71722 21.4712Z" fill="white"/>
</svg>
