<svg width="26" height="26" viewBox="0 0 26 26" fill="none" xmlns="http://www.w3.org/2000/svg">
<path fill-rule="evenodd" clip-rule="evenodd" d="M26 13C26 20.1797 20.1797 26 13 26C5.82032 26 0 20.1797 0 13C0 5.82032 5.82032 0 13 0C20.1797 0 26 5.82032 26 13ZM8.7054 11.8091C7.40312 12.3777 6.0651 12.962 4.84155 13.6359C4.20267 14.1037 5.05179 14.4346 5.84843 14.745C5.97507 14.7943 6.10036 14.8431 6.21817 14.8919C6.31621 14.9221 6.41588 14.9538 6.5169 14.986C7.4029 15.2682 8.3908 15.583 9.25096 15.1095C10.664 14.2978 11.9974 13.3594 13.3298 12.4218C13.7664 12.1145 14.2028 11.8074 14.6418 11.5048C14.6624 11.4917 14.6856 11.4766 14.711 11.4602C15.085 11.2177 15.9263 10.6724 15.6151 11.4238C14.8793 12.2285 14.0911 12.9408 13.2987 13.657C12.7646 14.1397 12.2286 14.6242 11.7054 15.1399C11.2497 15.5101 10.7764 16.2548 11.2867 16.7733C12.4621 17.5961 13.6558 18.399 14.8488 19.2014C15.237 19.4625 15.6252 19.7235 16.0126 19.9853C16.6693 20.5095 17.6954 20.0854 17.8398 19.2663C17.904 18.8894 17.9684 18.5126 18.0329 18.1358C18.3891 16.0533 18.7454 13.97 19.0602 11.8806C19.103 11.5529 19.1514 11.2252 19.2 10.8973C19.3176 10.1026 19.4353 9.30697 19.4721 8.50801C19.3773 7.71068 18.4105 7.88602 17.8726 8.06531C15.1072 9.11755 12.3696 10.2478 9.6427 11.398C9.33378 11.5348 9.02065 11.6715 8.7054 11.8091Z" fill="#E8E8E8"/>
</svg>
