<svg width="26" height="26" viewBox="0 0 26 26" fill="none" xmlns="http://www.w3.org/2000/svg">
<path fill-rule="evenodd" clip-rule="evenodd" d="M0 13C0 5.8203 5.8203 0 13 0C20.1797 0 26 5.8203 26 13C26 20.1797 20.1797 26 13 26C5.8203 26 0 20.1797 0 13ZM12.9812 9.54489C14.0375 9.54489 14.7501 10.0018 15.1563 10.3836L16.7439 8.83133C15.7688 7.92374 14.5 7.36667 12.9812 7.36667C10.7812 7.36667 8.88109 8.63104 7.95606 10.4713L9.77487 11.8859C10.2311 10.5276 11.4937 9.54489 12.9812 9.54489ZM18.3814 13.1252C18.3814 12.662 18.3439 12.324 18.2627 11.9735H12.9812V14.0641H16.0814C16.0189 14.5836 15.6813 15.366 14.9313 15.8918L16.7064 17.2688C17.7689 16.2861 18.3814 14.8402 18.3814 13.1252ZM9.78112 14.1141C9.66237 13.7636 9.59362 13.3881 9.59362 13C9.59362 12.6119 9.66237 12.2364 9.77487 11.8859L7.95606 10.4713C7.57479 11.2349 7.35604 12.0924 7.35604 13C7.35604 13.9076 7.5748 14.7651 7.95606 15.5287L9.78112 14.1141ZM12.9812 18.6333C14.5 18.6333 15.7751 18.1326 16.7064 17.2688L14.9313 15.8918C14.4563 16.2235 13.8188 16.4551 12.9812 16.4551C11.4937 16.4551 10.2311 15.4724 9.78112 14.1141L7.96231 15.5287C8.88734 17.369 10.7812 18.6333 12.9812 18.6333Z" fill="#E8E8E8"/>
</svg>
